<?xml version="1.0" encoding="UTF-8" standalone="no"?>
<!DOCTYPE svg PUBLIC "-//W3C//DTD SVG 1.1//EN"
 "http://www.w3.org/Graphics/SVG/1.1/DTD/svg11.dtd">
<!-- Generated by graphviz version 2.43.0 (0)
 -->
<!-- Title: %3 Pages: 1 -->
<svg width="1054pt" height="476pt"
 viewBox="0.00 0.00 1053.88 476.00" xmlns="http://www.w3.org/2000/svg" xmlns:xlink="http://www.w3.org/1999/xlink">
<g id="graph0" class="graph" transform="scale(1 1) rotate(0) translate(4 472)">
<title>%3</title>
<polygon fill="white" stroke="transparent" points="-4,4 -4,-472 1049.88,-472 1049.88,4 -4,4"/>
<!-- [root] aws_eip.lb (expand) -->
<g id="node1" class="node">
<title>[root] aws_eip.lb (expand)</title>
<polygon fill="none" stroke="black" points="766,-252 675,-252 675,-216 766,-216 766,-252"/>
<text text-anchor="middle" x="720.5" y="-230.3" font-family="Times,serif" font-size="14.00">aws_eip.lb</text>
</g>
<!-- [root] aws_instance.ec2&#45;1 (expand) -->
<g id="node2" class="node">
<title>[root] aws_instance.ec2&#45;1 (expand)</title>
<polygon fill="none" stroke="black" points="797.5,-180 643.5,-180 643.5,-144 797.5,-144 797.5,-180"/>
<text text-anchor="middle" x="720.5" y="-158.3" font-family="Times,serif" font-size="14.00">aws_instance.ec2&#45;1</text>
</g>
<!-- [root] aws_eip.lb (expand)&#45;&gt;[root] aws_instance.ec2&#45;1 (expand) -->
<g id="edge1" class="edge">
<title>[root] aws_eip.lb (expand)&#45;&gt;[root] aws_instance.ec2&#45;1 (expand)</title>
<path fill="none" stroke="black" d="M720.5,-215.7C720.5,-207.98 720.5,-198.71 720.5,-190.11"/>
<polygon fill="black" stroke="black" points="724,-190.1 720.5,-180.1 717,-190.1 724,-190.1"/>
</g>
<!-- [root] data.aws_ami.app_ami (expand) -->
<g id="node4" class="node">
<title>[root] data.aws_ami.app_ami (expand)</title>
<polygon fill="none" stroke="black" points="809,-108 632,-108 632,-72 809,-72 809,-108"/>
<text text-anchor="middle" x="720.5" y="-86.3" font-family="Times,serif" font-size="14.00">data.aws_ami.app_ami</text>
</g>
<!-- [root] aws_instance.ec2&#45;1 (expand)&#45;&gt;[root] data.aws_ami.app_ami (expand) -->
<g id="edge2" class="edge">
<title>[root] aws_instance.ec2&#45;1 (expand)&#45;&gt;[root] data.aws_ami.app_ami (expand)</title>
<path fill="none" stroke="black" d="M720.5,-143.7C720.5,-135.98 720.5,-126.71 720.5,-118.11"/>
<polygon fill="black" stroke="black" points="724,-118.1 720.5,-108.1 717,-118.1 724,-118.1"/>
</g>
<!-- [root] aws_security_group.allow_tls (expand) -->
<g id="node3" class="node">
<title>[root] aws_security_group.allow_tls (expand)</title>
<polygon fill="none" stroke="black" points="832.5,-324 608.5,-324 608.5,-288 832.5,-288 832.5,-324"/>
<text text-anchor="middle" x="720.5" y="-302.3" font-family="Times,serif" font-size="14.00">aws_security_group.allow_tls</text>
</g>
<!-- [root] aws_security_group.allow_tls (expand)&#45;&gt;[root] aws_eip.lb (expand) -->
<g id="edge3" class="edge">
<title>[root] aws_security_group.allow_tls (expand)&#45;&gt;[root] aws_eip.lb (expand)</title>
<path fill="none" stroke="black" d="M720.5,-287.7C720.5,-279.98 720.5,-270.71 720.5,-262.11"/>
<polygon fill="black" stroke="black" points="724,-262.1 720.5,-252.1 717,-262.1 724,-262.1"/>
</g>
<!-- [root] provider[&quot;registry.terraform.io/hashicorp/aws&quot;] -->
<g id="node5" class="node">
<title>[root] provider[&quot;registry.terraform.io/hashicorp/aws&quot;]</title>
<polygon fill="none" stroke="black" points="720.5,-36 395.24,-18 720.5,0 1045.76,-18 720.5,-36"/>
<text text-anchor="middle" x="720.5" y="-14.3" font-family="Times,serif" font-size="14.00">provider[&quot;registry.terraform.io/hashicorp/aws&quot;]</text>
</g>
<!-- [root] data.aws_ami.app_ami (expand)&#45;&gt;[root] provider[&quot;registry.terraform.io/hashicorp/aws&quot;] -->
<g id="edge4" class="edge">
<title>[root] data.aws_ami.app_ami (expand)&#45;&gt;[root] provider[&quot;registry.terraform.io/hashicorp/aws&quot;]</title>
<path fill="none" stroke="black" d="M720.5,-71.7C720.5,-63.98 720.5,-54.71 720.5,-46.11"/>
<polygon fill="black" stroke="black" points="724,-46.1 720.5,-36.1 717,-46.1 724,-46.1"/>
</g>
<!-- [root] var.az -->
<g id="node6" class="node">
<title>[root] var.az</title>
<polygon fill="none" stroke="black" points="53,-396 0,-396 0,-360 59,-360 59,-390 53,-396"/>
<polyline fill="none" stroke="black" points="53,-396 53,-390 "/>
<polyline fill="none" stroke="black" points="59,-390 53,-390 "/>
<text text-anchor="middle" x="29.5" y="-374.3" font-family="Times,serif" font-size="14.00">var.az</text>
</g>
<!-- [root] var.elb_name -->
<g id="node7" class="node">
<title>[root] var.elb_name</title>
<polygon fill="none" stroke="black" points="181.5,-396 77.5,-396 77.5,-360 187.5,-360 187.5,-390 181.5,-396"/>
<polyline fill="none" stroke="black" points="181.5,-396 181.5,-390 "/>
<polyline fill="none" stroke="black" points="187.5,-390 181.5,-390 "/>
<text text-anchor="middle" x="132.5" y="-374.3" font-family="Times,serif" font-size="14.00">var.elb_name</text>
</g>
<!-- [root] var.timeout -->
<g id="node8" class="node">
<title>[root] var.timeout</title>
<polygon fill="none" stroke="black" points="297.5,-396 205.5,-396 205.5,-360 303.5,-360 303.5,-390 297.5,-396"/>
<polyline fill="none" stroke="black" points="297.5,-396 297.5,-390 "/>
<polyline fill="none" stroke="black" points="303.5,-390 297.5,-390 "/>
<text text-anchor="middle" x="254.5" y="-374.3" font-family="Times,serif" font-size="14.00">var.timeout</text>
</g>
<!-- [root] var.vpn_ip -->
<g id="node9" class="node">
<title>[root] var.vpn_ip</title>
<polygon fill="none" stroke="black" points="405,-396 322,-396 322,-360 411,-360 411,-390 405,-396"/>
<polyline fill="none" stroke="black" points="405,-396 405,-390 "/>
<polyline fill="none" stroke="black" points="411,-390 405,-390 "/>
<text text-anchor="middle" x="366.5" y="-374.3" font-family="Times,serif" font-size="14.00">var.vpn_ip</text>
</g>
<!-- [root] provider[&quot;registry.terraform.io/hashicorp/aws&quot;] (close) -->
<g id="node10" class="node">
<title>[root] provider[&quot;registry.terraform.io/hashicorp/aws&quot;] (close)</title>
<ellipse fill="none" stroke="black" cx="720.5" cy="-378" rx="291.65" ry="18"/>
<text text-anchor="middle" x="720.5" y="-374.3" font-family="Times,serif" font-size="14.00">[root] provider[&quot;registry.terraform.io/hashicorp/aws&quot;] (close)</text>
</g>
<!-- [root] provider[&quot;registry.terraform.io/hashicorp/aws&quot;] (close)&#45;&gt;[root] aws_security_group.allow_tls (expand) -->
<g id="edge5" class="edge">
<title>[root] provider[&quot;registry.terraform.io/hashicorp/aws&quot;] (close)&#45;&gt;[root] aws_security_group.allow_tls (expand)</title>
<path fill="none" stroke="black" d="M720.5,-359.7C720.5,-351.98 720.5,-342.71 720.5,-334.11"/>
<polygon fill="black" stroke="black" points="724,-334.1 720.5,-324.1 717,-334.1 724,-334.1"/>
</g>
<!-- [root] root -->
<g id="node11" class="node">
<title>[root] root</title>
<ellipse fill="none" stroke="black" cx="254.5" cy="-450" rx="58.49" ry="18"/>
<text text-anchor="middle" x="254.5" y="-446.3" font-family="Times,serif" font-size="14.00">[root] root</text>
</g>
<!-- [root] root&#45;&gt;[root] var.az -->
<g id="edge7" class="edge">
<title>[root] root&#45;&gt;[root] var.az</title>
<path fill="none" stroke="black" d="M210,-438.11C171.99,-428.38 116.07,-413.06 68.5,-396 68.4,-395.97 68.31,-395.93 68.21,-395.9"/>
<polygon fill="black" stroke="black" points="69.74,-392.73 59.15,-392.41 67.22,-399.27 69.74,-392.73"/>
</g>
<!-- [root] root&#45;&gt;[root] var.elb_name -->
<g id="edge8" class="edge">
<title>[root] root&#45;&gt;[root] var.elb_name</title>
<path fill="none" stroke="black" d="M228.03,-433.81C211.41,-424.27 189.68,-411.81 171.15,-401.18"/>
<polygon fill="black" stroke="black" points="172.76,-398.07 162.35,-396.13 169.28,-404.14 172.76,-398.07"/>
</g>
<!-- [root] root&#45;&gt;[root] var.timeout -->
<g id="edge9" class="edge">
<title>[root] root&#45;&gt;[root] var.timeout</title>
<path fill="none" stroke="black" d="M254.5,-431.7C254.5,-423.98 254.5,-414.71 254.5,-406.11"/>
<polygon fill="black" stroke="black" points="258,-406.1 254.5,-396.1 251,-406.1 258,-406.1"/>
</g>
<!-- [root] root&#45;&gt;[root] var.vpn_ip -->
<g id="edge10" class="edge">
<title>[root] root&#45;&gt;[root] var.vpn_ip</title>
<path fill="none" stroke="black" d="M279.08,-433.64C294.21,-424.18 313.87,-411.89 330.72,-401.36"/>
<polygon fill="black" stroke="black" points="332.6,-404.31 339.23,-396.04 328.89,-398.38 332.6,-404.31"/>
</g>
<!-- [root] root&#45;&gt;[root] provider[&quot;registry.terraform.io/hashicorp/aws&quot;] (close) -->
<g id="edge6" class="edge">
<title>[root] root&#45;&gt;[root] provider[&quot;registry.terraform.io/hashicorp/aws&quot;] (close)</title>
<path fill="none" stroke="black" d="M306.15,-441.24C377.79,-430.48 509.28,-410.73 604.97,-396.35"/>
<polygon fill="black" stroke="black" points="605.62,-399.8 614.99,-394.85 604.58,-392.87 605.62,-399.8"/>
</g>
</g>
</svg>
